# ProBuilder 4.5.2
# https://unity3d.com/unity/features/worldbuilding/probuilder
# 8/11/2021 12:21:08 PM

mtllib ./Road.mtl
o Road

g Road
v -1.00015 0 -2.5003
v -2.00015 0 -2.5003
v -1.00015 0 -3.5003
v -2.00015 0 -3.5003
v -2.00015 0 -1.5002
v -1.00015 0 -1.5002
v -2.00015 0 -0.5001001
v -1.00015 0 -0.5001001
v -2.00015 0 0.5
v -1.00015 0 0.5
v -2.00015 0 1.5001
v -1.00015 0 1.5001
v -2.00015 0 2.5002
v -1.00015 0 2.5002
v -2.00015 0 3.5003
v -1.00015 0 3.5003
v -5.00679E-05 0 -1.5002
v -5.00679E-05 0 -2.5003
v -5.00679E-05 0 -3.5003
v -5.00679E-05 0 -0.5001001
v -5.00679E-05 0 0.5
v -5.00679E-05 0 1.5001
v -5.00679E-05 0 2.5002
v -5.00679E-05 0 3.5003
v 1.00005 0 -1.5002
v 1.00005 0 -2.5003
v 1.00005 0 -3.5003
v 1.00005 0 -0.5001001
v 1.00005 0 0.5
v 1.00005 0 1.5001
v 1.00005 0 2.5002
v 1.00005 0 3.5003
v 2.00015 0 -1.5002
v 2.00015 0 -2.5003
v 2.00015 0 -3.5003
v 2.00015 0 -0.5001001
v 2.00015 0 0.5
v 2.00015 0 1.5001
v 2.00015 0 2.5002
v 2.00015 0 3.5003

vt 0.1251795 0.5622575
vt 0.1871796 0.5622575
vt 0.1251795 0.5002573
vt 0.1871796 0.5002573
vt 0.1871795 0.7494704
vt 0.1871795 0.6874706
vt 0.1251795 0.7494704
vt 0.1251795 0.6874706

vn 0 1 0

usemtl ChankTexture
f 3/3/1 4/4/1 2/2/1 1/1/1
f 5/2/1 6/1/1 1/3/1 2/4/1
f 7/2/1 8/1/1 6/3/1 5/4/1
f 9/2/1 10/1/1 8/3/1 7/4/1
f 11/2/1 12/1/1 10/3/1 9/4/1
f 13/2/1 14/1/1 12/3/1 11/4/1
f 15/2/1 16/1/1 14/3/1 13/4/1
f 17/1/1 18/3/1 1/4/1 6/2/1
f 18/1/1 19/3/1 3/4/1 1/2/1
f 20/1/1 17/3/1 6/4/1 8/2/1
f 21/7/1 20/8/1 8/6/1 10/5/1
f 22/1/1 21/3/1 10/4/1 12/2/1
f 23/1/1 22/3/1 12/4/1 14/2/1
f 24/1/1 23/3/1 14/4/1 16/2/1
f 25/1/1 26/3/1 18/4/1 17/2/1
f 26/1/1 27/3/1 19/4/1 18/2/1
f 28/1/1 25/3/1 17/4/1 20/2/1
f 29/7/1 28/8/1 20/6/1 21/5/1
f 30/1/1 29/3/1 21/4/1 22/2/1
f 31/1/1 30/3/1 22/4/1 23/2/1
f 32/1/1 31/3/1 23/4/1 24/2/1
f 33/1/1 34/3/1 26/4/1 25/2/1
f 34/1/1 35/3/1 27/4/1 26/2/1
f 36/1/1 33/3/1 25/4/1 28/2/1
f 37/1/1 36/3/1 28/4/1 29/2/1
f 38/1/1 37/3/1 29/4/1 30/2/1
f 39/1/1 38/3/1 30/4/1 31/2/1
f 40/1/1 39/3/1 31/4/1 32/2/1

